<svg width="33" height="33" viewBox="0 0 33 33" fill="none" xmlns="http://www.w3.org/2000/svg">
<path d="M28.3785 18.501C28.3292 18.3232 28.4375 18.0762 28.5408 17.8984C28.5724 17.8454 28.6069 17.7943 28.6442 17.7452C29.5281 16.4267 30.001 14.8738 30.0024 13.2846C30.0172 8.73003 26.1886 5.03503 21.4545 5.03503C17.3257 5.03503 13.8809 7.85568 13.0739 11.6001C12.9531 12.1551 12.8921 12.7214 12.8918 13.2895C12.8918 17.849 16.5728 21.6428 21.3068 21.6428C22.0598 21.6428 23.0735 21.4155 23.6296 21.2624C24.1857 21.1093 24.7368 20.9067 24.8796 20.8524C25.0258 20.797 25.1809 20.7686 25.3372 20.7684C25.5078 20.7678 25.6768 20.8013 25.8342 20.8672L28.6245 21.8601C28.6857 21.8861 28.7504 21.9028 28.8164 21.9095C28.9208 21.9095 29.021 21.8679 29.0948 21.7938C29.1686 21.7197 29.2101 21.6191 29.2101 21.5143C29.2067 21.4691 29.1984 21.4244 29.1855 21.381L28.3785 18.501Z" stroke="#141414" stroke-width="3" stroke-miterlimit="10" stroke-linecap="round"/>
<path d="M8.55107 16.3643C7.90564 17.5282 7.59341 18.8486 7.6489 20.1796C7.7044 21.5105 8.12546 22.8002 8.86553 23.9059C8.97921 24.0783 9.04318 24.2117 9.0235 24.3011C9.00381 24.3905 8.43641 27.3574 8.43641 27.3574C8.42276 27.4268 8.42794 27.4986 8.4514 27.5654C8.47486 27.6321 8.51574 27.6913 8.56977 27.7367C8.64187 27.7944 8.73152 27.8255 8.8237 27.8247C8.87296 27.8248 8.92171 27.8147 8.9669 27.795L11.733 26.7083C11.9234 26.6329 12.1358 26.6365 12.3236 26.7181C13.2556 27.0827 14.2861 27.3109 15.3171 27.3109C16.7005 27.3124 18.0597 26.9461 19.2564 26.2494" stroke="#141414" stroke-width="3" stroke-miterlimit="10" stroke-linecap="round"/>
</svg>
